<svg xmlns="http://www.w3.org/2000/svg" version="1.1" xmlns:xlink="http://www.w3.org/1999/xlink" xmlns:svgjs="http://svgjs.dev/svgjs" width="2000" height="666" viewBox="0 0 2000 666"><g transform="matrix(1,0,0,1,8.166298491315956,8.711632067372307)"><svg viewBox="0 0 396 132" data-background-color="#ffffff" preserveAspectRatio="xMidYMid meet" height="666" width="2000" xmlns="http://www.w3.org/2000/svg" xmlns:xlink="http://www.w3.org/1999/xlink"><g id="tight-bounds" transform="matrix(1,0,0,1,0.2400000000000091,0.13665133323468126)"><svg viewBox="0 0 395.52 131.72669733353067" height="131.72669733353067" width="395.52"><g><svg viewBox="0 0 669.8100785731419 223.07814899664405" height="131.72669733353067" width="395.52"><g><rect width="8.212828336785146" height="193.7002740925997" x="244.57769961650044" y="14.688937452022174" fill="#ffffff" opacity="1" stroke-width="0" stroke="transparent" fill-opacity="1" class="rect-yte-0" data-fill-palette-color="primary" rx="1%" id="yte-0" data-palette-color="#ffffff"></rect></g><g transform="matrix(1,0,0,1,274.290078573142,30.830626959738808)"><svg viewBox="0 0 395.52 161.41689507716643" height="161.41689507716643" width="395.52"><g id="textblocktransform"><svg viewBox="0 0 395.52 161.41689507716643" height="161.41689507716643" width="395.52" id="textblock"><g><svg viewBox="0 0 395.52 91.07046298588759" height="91.07046298588759" width="395.52"><g transform="matrix(1,0,0,1,0,0)"><svg width="395.52" viewBox="3.8 -35.6 201.92999999999998 46.5" height="91.07046298588759" data-palette-color="#ffffff"><path d="M9.85 10.9L3.8 10.9 3.8-24.9 9.75-24.9 9.75-24.1 9.25-20.6Q9.55-22.03 10.61-23.15 11.68-24.28 13.21-24.91 14.75-25.55 16.45-25.55L16.45-25.55Q21.4-25.55 23.68-22.09 25.95-18.63 25.95-12.8L25.95-12.8Q25.95-6.28 23.19-2.79 20.43 0.7 15.95 0.7L15.95 0.7Q13.18 0.7 11.51-1.03 9.85-2.75 9.25-4.95L9.25-4.95 9.85-0.25 9.85 10.9ZM14.5-4.25L14.5-4.25Q15.7-4.25 16.82-5.06 17.95-5.88 18.68-7.7 19.4-9.53 19.4-12.55L19.4-12.55Q19.4-16.75 17.96-18.6 16.53-20.45 14.6-20.45L14.6-20.45Q12.28-20.45 11.06-18.06 9.85-15.68 9.85-12.15L9.85-12.15Q9.85-8.63 11.09-6.44 12.33-4.25 14.5-4.25ZM37.8 0L31.55 0 31.55-24.9 37.2-24.9 37.5-20.5Q37.9-21.48 38.73-22.58 39.57-23.68 41.06-24.44 42.55-25.2 44.9-25.2L44.9-25.2Q45.62-25.2 46.17-25.1 46.72-25 47.2-24.8L47.2-24.8 45.8-18.25Q45-19.05 43.35-19.05L43.35-19.05Q41.42-19.05 40.2-18.26 38.97-17.48 38.39-16.5 37.8-15.53 37.8-15L37.8-15 37.8 0ZM57.7-28.95L50.7-28.95 50.7-35.6 57.7-35.6 57.7-28.95ZM57.45 0L50.95 0 50.95-24.9 57.45-24.9 57.45 0ZM71.29 0L64.89 0 64.89-24.9 70.69-24.9 70.82-21.63Q71.79-23.13 73.54-24.31 75.29-25.5 78.14-25.5L78.14-25.5Q81.94-25.5 83.79-23.1 85.64-20.7 85.64-16.45L85.64-16.45 85.64 0 79.24 0 79.24-15.9Q79.24-17.98 78.37-19.26 77.49-20.55 75.69-20.55L75.69-20.55Q73.94-20.55 72.62-19.26 71.29-17.98 71.29-15.9L71.29-15.9 71.29 0ZM101.04 0.75L101.04 0.75Q96.82 0.75 95.33-1.45 93.84-3.65 93.84-8.1L93.84-8.1 93.84-19.65 90.59-19.65 90.59-24.9 94.09-24.9 94.44-30.15 99.89-32.5 99.89-24.9 106.04-24.9 106.04-19.65 99.89-19.65 99.89-8.25Q99.89-6.08 100.5-5.24 101.12-4.4 102.19-4.4L102.19-4.4Q103.29-4.4 104.52-4.98 105.74-5.55 106.44-6.15L106.44-6.15 107.64-1.1Q106.87-0.55 105.63-0.14 104.39 0.28 103.13 0.51 101.87 0.75 101.04 0.75ZM122.84 0L118.39 0 108.29-24.9 115.29-24.9 119.59-12.45 120.69-8.35 121.69-12.45 125.84-24.9 132.44-24.9 122.84 0ZM142.64-28.95L135.64-28.95 135.64-35.6 142.64-35.6 142.64-28.95ZM142.39 0L135.89 0 135.89-24.9 142.39-24.9 142.39 0ZM156.63 0.45L156.63 0.45Q153.91 0.45 152.17-0.06 150.43-0.58 149.47-1.24 148.51-1.9 148.13-2.35L148.13-2.35 149.98-7.1Q151.08-6.2 152.8-5.33 154.51-4.45 156.78-4.45L156.78-4.45Q158.56-4.45 159.27-5.18 159.98-5.9 159.98-6.75L159.98-6.75Q159.98-7.93 158.36-8.88 156.73-9.83 154.58-10.75L154.58-10.75Q153.31-11.3 151.88-12.15 150.46-13 149.45-14.4 148.43-15.8 148.43-18L148.43-18Q148.43-21.38 150.9-23.39 153.36-25.4 157.88-25.4L157.88-25.4Q160.78-25.4 162.8-24.54 164.81-23.68 165.48-23L165.48-23 163.78-18.5Q162.81-19.25 161.31-19.93 159.81-20.6 158.08-20.6L158.08-20.6Q156.18-20.6 155.43-20.1 154.68-19.6 154.68-18.5L154.68-18.5Q154.68-17.28 156.02-16.49 157.36-15.7 159.23-14.95L159.23-14.95Q162.36-13.73 164.27-11.94 166.18-10.15 166.18-7.4L166.18-7.4Q166.18-5.35 165.23-3.56 164.28-1.78 162.18-0.66 160.08 0.45 156.63 0.45ZM178.48-28.95L171.48-28.95 171.48-35.6 178.48-35.6 178.48-28.95ZM178.23 0L171.73 0 171.73-24.9 178.23-24.9 178.23 0ZM195.78 0.65L195.78 0.65Q191.58 0.65 189-1.11 186.43-2.88 185.25-5.79 184.08-8.7 184.08-12.15L184.08-12.15Q184.08-15.78 185.42-18.81 186.75-21.85 189.34-23.68 191.93-25.5 195.68-25.5L195.68-25.5Q201.28-25.5 203.5-22.26 205.73-19.03 205.73-13.1L205.73-13.1Q205.73-12.58 205.7-11.78 205.68-10.98 205.63-10.4L205.63-10.4 190.63-10.4Q190.78-7.45 192.29-5.78 193.8-4.1 196.83-4.1L196.83-4.1Q198.38-4.1 200.15-4.79 201.93-5.48 202.78-6.45L202.78-6.45 204.78-1.7Q203.78-1.03 201.62-0.19 199.45 0.65 195.78 0.65ZM190.58-14.3L190.58-14.3 199.38-14.3Q199.38-16.93 198.92-18.31 198.45-19.7 197.65-20.23 196.85-20.75 195.83-20.75L195.83-20.75Q193.28-20.75 192-18.86 190.73-16.98 190.58-14.3Z" opacity="1" transform="matrix(1,0,0,1,0,0)" fill="#ffffff" class="wordmark-text-0" data-fill-palette-color="primary" id="text-0"></path></svg></g></svg></g><g transform="matrix(1,0,0,1,0,112.57001360574398)"><svg viewBox="0 0 232.209792 48.84688147142243" height="48.84688147142243" width="232.209792"><g transform="matrix(1,0,0,1,0,0)"><svg width="232.209792" viewBox="-0.55 -36.75 232.68 48.95" height="48.84688147142243" data-palette-color="#a6a6a6"><path d="M-0.55 8.65L-0.55 5.1 37.5 5.1 37.5 8.65-0.55 8.65ZM50.65 0.5Q47.55 0.5 44.92-0.98 42.3-2.45 40.72-5.18 39.15-7.9 39.15-11.55L39.15-11.55Q39.15-17 42.2-20.28 45.25-23.55 50.45-23.55L50.45-23.55Q53.35-23.55 55.75-22.13 58.15-20.7 59-18.7L59-18.7 58.75-22.6 58.75-36.75 64.05-36.75 64.05 0 58.9 0 58.8-4.05Q57.95-2.25 55.7-0.88 53.45 0.5 50.65 0.5L50.65 0.5ZM51.55-4.05Q54.4-4.05 56.35-6.03 58.3-8 58.3-11.2L58.3-11.2 58.3-11.55Q58.3-13.7 57.4-15.4 56.5-17.1 54.95-18.05 53.4-19 51.55-19L51.55-19Q48.35-19 46.6-16.93 44.85-14.85 44.85-11.55L44.85-11.55Q44.85-8.2 46.57-6.13 48.3-4.05 51.55-4.05L51.55-4.05ZM71.05 0L71.05-22.95 76.45-22.95 76.45-18.45Q77.25-20.75 79.05-22.15 80.85-23.55 83.15-23.55L83.15-23.55Q84.75-23.55 85.35-23.25L85.35-23.25 84.6-17.8Q84.15-18.1 82.65-18.1L82.65-18.1Q80.3-18.1 78.37-16.6 76.45-15.1 76.45-11.8L76.45-11.8 76.45 0 71.05 0ZM97.09 0.5Q92.34 0.5 90.57-2.3 88.79-5.1 88.79-10.1L88.79-10.1 88.79-22.95 94.19-22.95 94.19-11.45Q94.19-8.6 94.52-7.03 94.84-5.45 95.82-4.7 96.79-3.95 98.74-3.95L98.74-3.95Q100.14-3.95 101.44-4.75 102.74-5.55 103.57-6.93 104.39-8.3 104.39-9.95L104.39-9.95 104.39-22.95 109.74-22.95 109.74 0 105.34 0 104.74-3.35Q103.49-1.4 101.62-0.45 99.74 0.5 97.09 0.5L97.09 0.5ZM128.99-13.35L137.69 0 131.34 0 126.69-7.5 125.39-10.05 122.39-6.8 122.39 0 117.19 0 117.19-36.75 122.34-36.75 122.34-16.6 122.24-12.7 130.99-22.95 137.64-22.95 128.99-13.35ZM154.04-13.35L162.74 0 156.39 0 151.74-7.5 150.44-10.05 147.44-6.8 147.44 0 142.24 0 142.24-36.75 147.39-36.75 147.39-16.6 147.29-12.7 156.04-22.95 162.69-22.95 154.04-13.35ZM177.89 0.5Q173.79 0.5 171.04-1.13 168.29-2.75 166.99-5.48 165.69-8.2 165.69-11.45L165.69-11.45Q165.69-15.1 167.21-17.85 168.74-20.6 171.44-22.08 174.14-23.55 177.54-23.55L177.54-23.55Q182.84-23.55 185.41-20.63 187.99-17.7 187.99-12.4L187.99-12.4Q187.99-11.05 187.84-9.6L187.84-9.6 171.34-9.6Q171.89-6.55 173.51-5.2 175.14-3.85 178.04-3.85L178.04-3.85Q180.44-3.85 181.99-4.25 183.54-4.65 184.84-5.35L184.84-5.35 186.49-1.5Q185.24-0.7 183.09-0.1 180.94 0.5 177.89 0.5L177.89 0.5ZM171.34-13.35L182.74-13.35Q182.79-16.45 181.39-17.73 179.99-19 177.39-19L177.39-19Q172.14-19 171.34-13.35L171.34-13.35ZM193.48 0L193.48-22.95 198.88-22.95 198.88-18.45Q199.68-20.75 201.48-22.15 203.28-23.55 205.58-23.55L205.58-23.55Q207.18-23.55 207.78-23.25L207.78-23.25 207.03-17.8Q206.58-18.1 205.08-18.1L205.08-18.1Q202.73-18.1 200.81-16.6 198.88-15.1 198.88-11.8L198.88-11.8 198.88 0 193.48 0ZM211.98 0L211.98-22.95 217.58-22.95 217.58 0 211.98 0ZM214.73-27.25Q213.18-27.25 212.13-28.3 211.08-29.35 211.08-30.9L211.08-30.9Q211.08-32.3 212.13-33.3 213.18-34.3 214.73-34.3L214.73-34.3Q216.23-34.3 217.28-33.3 218.33-32.3 218.33-30.9L218.33-30.9Q218.33-29.35 217.31-28.3 216.28-27.25 214.73-27.25L214.73-27.25ZM222.93 12.2Q221.08 12.2 218.93 11.65L218.93 11.65 220.08 6.8Q220.88 7.1 221.63 7.33 222.38 7.55 223.03 7.55L223.03 7.55Q224.68 7.55 225.4 6.65 226.13 5.75 226.13 3L226.13 3 226.13-22.95 231.53-22.95 231.53 3.25Q231.53 7.6 229.28 9.9 227.03 12.2 222.93 12.2L222.93 12.2ZM228.53-27.25Q226.98-27.25 225.93-28.3 224.88-29.35 224.88-30.9L224.88-30.9Q224.88-32.3 225.93-33.3 226.98-34.3 228.53-34.3L228.53-34.3Q230.03-34.3 231.08-33.3 232.13-32.3 232.13-30.9L232.13-30.9Q232.13-29.35 231.1-28.3 230.08-27.25 228.53-27.25L228.53-27.25Z" opacity="1" transform="matrix(1,0,0,1,0,0)" fill="#a6a6a6" class="slogan-text-1" data-fill-palette-color="secondary" id="text-1"></path></svg></g></svg></g></svg></g></svg></g><g><svg viewBox="0 0 223.07814899664405 223.07814899664405" height="223.07814899664405" width="223.07814899664405"><g><svg xmlns="http://www.w3.org/2000/svg" data-name="Layer 1" viewBox="6 6 88 88" x="0" y="0" height="223.07814899664405" width="223.07814899664405" class="icon-icon-0" data-fill-palette-color="accent" id="icon-0"><circle cx="15" cy="15" r="2.0" fill="#e5e5e5" data-fill-palette-color="accent"></circle><circle cx="22" cy="15" r="2.0" fill="#e5e5e5" data-fill-palette-color="accent"></circle><path d="M88 6H12A6 6 0 0 0 6 12V88A6 6 0 0 0 12 94H88A6 6 0 0 0 94 88V12A6 6 0 0 0 88 6M71 90H29V80A2 2 0 0 1 31 78H69A2 2 0 0 1 71 80ZM80 90H75V80A6 6 0 0 0 69 74H31A6 6 0 0 0 25 80V90H20V70A1 1 0 0 1 21 69H79A1 1 0 0 1 80 70ZM29 65V60A1 1 0 0 1 30 59H36V65ZM40 65V41H60V65ZM64 65V59H70A1 1 0 0 1 71 60V65ZM90 88A2 2 0 0 1 88 90H84V70A5 5 0 0 0 79 65H75V60A5 5 0 0 0 70 55H64V37H36V55H30A5 5 0 0 0 25 60V65H21A5 5 0 0 0 16 70V90H12A2 2 0 0 1 10 88V24H90ZM90 20H10V12A2 2 0 0 1 12 10H88A2 2 0 0 1 90 12Z" fill="#e5e5e5" data-fill-palette-color="accent"></path><circle cx="29" cy="15" r="2.0" fill="#e5e5e5" data-fill-palette-color="accent"></circle><rect x="37" y="82" width="26" height="4" fill="#e5e5e5" data-fill-palette-color="accent"></rect><rect x="43" y="44" width="14" height="4" fill="#e5e5e5" data-fill-palette-color="accent"></rect><rect x="43" y="51" width="14" height="4" fill="#e5e5e5" data-fill-palette-color="accent"></rect></svg></g></svg></g></svg></g><defs></defs></svg><rect width="395.52" height="131.72669733353067" fill="none" stroke="none" visibility="hidden"></rect></g></svg></g></svg>