<?xml version="1.0" encoding="UTF-8"?>
<svg version="1.1" xmlns="http://www.w3.org/2000/svg" width="200" height="200">
<path d="M0 0 C66 0 132 0 200 0 C200 66 200 132 200 200 C134 200 68 200 0 200 C0 134 0 68 0 0 Z " fill="#FEFEFE" transform="translate(0,0)"/>
<path d="M0 0 C15.24355301 0 15.24355301 0 20 4 C23.97250615 9.35184856 23.76590821 14.57681522 23 21 C21.20234119 25.09866209 19.76688019 26.52069988 16 28.875 C12 30 12 30 0 30 C0 20.1 0 10.2 0 0 Z " fill="#0A0A0A" transform="translate(87,83)"/>
<path d="M0 0 C14.46153846 0 14.46153846 0 20.875 5.4375 C23.85387244 9.26198784 23.51678891 13.43187679 23.46875 18.09765625 C22.83057449 22.04902629 21.46239673 24.7701772 18.37890625 27.36328125 C11.57750394 30.91756246 8.76242835 30 0 30 C0 20.1 0 10.2 0 0 Z " fill="#0A0A0A" transform="translate(22,83)"/>
<path d="M0 0 C4.38385942 1.90567023 7.13160571 4.08178343 9.22265625 8.421875 C10.71743744 13.05663682 10.33475569 17.00385119 8.65625 21.59765625 C6.02936967 25.58326779 3.37433408 27.83746156 -1.15625 29.34765625 C-6.03781423 29.86017848 -10.00710989 29.85838519 -14.53125 27.84765625 C-18.42154395 24.14261439 -20.835602 20.51065853 -21.38671875 15.07421875 C-21.14212325 9.76559049 -19.38110871 6.62558744 -15.82421875 2.7578125 C-11.09576236 -1.23978178 -5.83694001 -1.76588584 0 0 Z M-15.15625 7.34765625 C-17.00487688 11.04491 -16.63212094 15.31227067 -16.15625 19.34765625 C-14.35978146 22.2818882 -13.2121429 23.8197098 -10.15625 25.34765625 C-6.37058208 25.87764976 -2.70768964 26.17786878 0.734375 24.3359375 C4.58042878 21.2273552 5.66913871 18.89005601 6.21875 14.03515625 C5.72140929 9.14463924 4.27290508 7.77681133 0.84375 4.34765625 C-4.86077401 1.49539425 -10.89318325 2.81814783 -15.15625 7.34765625 Z " fill="#121212" transform="translate(138.15625,83.65234375)"/>
<path d="M0 0 C9.17647059 0 9.17647059 0 14 4 C15.85726616 7.71453232 15.58501089 11.95579425 15 16 C12.80977082 18.82424288 11.16982793 20.41508603 8 22 C5.36 22 2.72 22 0 22 C0 14.74 0 7.48 0 0 Z " fill="#F6F6F6" transform="translate(91,87)"/>
<path d="M0 0 C10 1 10 1 13.125 2.9375 C15.78578606 7.28345057 16.03611758 11.03153065 15 16 C12.47323961 19.34625024 10.96066458 20.67977847 7 22 C4.69 22 2.38 22 0 22 C0 14.74 0 7.48 0 0 Z " fill="#FBFBFB" transform="translate(26,87)"/>
<path d="M0 0 C1.32 0 2.64 0 4 0 C4.33 3.63 4.66 7.26 5 11 C5.79664063 10.2059375 6.59328125 9.411875 7.4140625 8.59375 C8.48362193 7.56171897 9.55397671 6.53051177 10.625 5.5 C11.40810547 4.71302734 11.40810547 4.71302734 12.20703125 3.91015625 C15.08140343 1.17772838 16.32515277 0.06826041 20.3984375 -0.34375 C21.25695312 -0.2303125 22.11546875 -0.116875 23 0 C18 5 13 10 8 15 C10.48779937 18.24641084 12.98370472 21.00924461 16.125 23.625 C18.6326742 25.71630566 20.15999196 27.23998794 22 30 C19.328125 30.30859375 19.328125 30.30859375 16 30 C13.296875 27.84765625 13.296875 27.84765625 10.75 25.0625 C7.72146405 21.5745238 7.72146405 21.5745238 4 19 C4 22.63 4 26.26 4 30 C2.68 30 1.36 30 0 30 C0 20.1 0 10.2 0 0 Z " fill="#0C0C0C" transform="translate(155,83)"/>
<path d="M0 0 C1.32 0 2.64 0 4 0 C4.02187378 0.92280762 4.02187378 0.92280762 4.04418945 1.86425781 C4.11880577 4.66012854 4.2154198 7.45482287 4.3125 10.25 C4.33505859 11.21808594 4.35761719 12.18617187 4.38085938 13.18359375 C4.41630859 14.11816406 4.45175781 15.05273438 4.48828125 16.015625 C4.51446533 16.87446289 4.54064941 17.73330078 4.56762695 18.61816406 C5.08471229 21.46665901 6.04983034 22.88714143 8 25 C9.93425486 25.62723208 9.93425486 25.62723208 12 25.5 C12.680625 25.5103125 13.36125 25.520625 14.0625 25.53125 C16.83894892 24.76996562 17.50388054 23.41595203 19 21 C19.49758752 18.59445706 19.49758752 18.59445706 19.51171875 16.015625 C19.54716797 15.08105469 19.58261719 14.14648438 19.61914062 13.18359375 C19.64169922 12.21550781 19.66425781 11.24742188 19.6875 10.25 C19.72166016 9.26644531 19.75582031 8.28289062 19.79101562 7.26953125 C19.87335273 4.84646801 19.94254838 2.42376002 20 0 C21.32 0 22.64 0 24 0 C24.08741124 3.56234428 24.14052896 7.12441108 24.1875 10.6875 C24.21263672 11.69490234 24.23777344 12.70230469 24.26367188 13.74023438 C24.35588542 23.05380221 24.35588542 23.05380221 21 27 C17.29016528 30.16427079 13.86927575 30.52028667 9.15234375 30.35546875 C5.87493209 29.81419024 4.21179019 28.41286203 2 26 C0.05644794 22.84034693 -0.23815157 20.48103475 -0.1953125 16.796875 C-0.18886719 15.8171875 -0.18242188 14.8375 -0.17578125 13.828125 C-0.15902344 12.81234375 -0.14226563 11.7965625 -0.125 10.75 C-0.11597656 9.71875 -0.10695312 8.6875 -0.09765625 7.625 C-0.07412011 5.08309713 -0.04124023 2.5416672 0 0 Z " fill="#0B0B0B" transform="translate(53,83)"/>
<path d="M0 0 C0.92876953 -0.00322266 1.85753906 -0.00644531 2.81445312 -0.00976562 C9.28339738 0.04017009 16.05244126 0.36997063 21.9375 3.3125 C21.9375 4.3025 21.9375 5.2925 21.9375 6.3125 C21.34976807 6.24248779 20.76203613 6.17247559 20.15649414 6.1003418 C13.54767772 5.36933237 7.02126081 5.12940441 0.375 5.125 C-0.60146484 5.11275391 -1.57792969 5.10050781 -2.58398438 5.08789062 C-8.72416869 5.07556918 -14.11880993 5.76063871 -20.0625 7.3125 C-20.3925 5.9925 -20.7225 4.6725 -21.0625 3.3125 C-13.90783101 0.74567631 -7.57754922 -0.13201305 0 0 Z " fill="#161616" transform="translate(97.0625,69.6875)"/>
<path d="M0 0 C13.53 0 27.06 0 41 0 C41 1.32 41 2.64 41 4 C27.47 4 13.94 4 0 4 C0 2.68 0 1.36 0 0 Z " fill="#0E0E0E" transform="translate(77,121)"/>
</svg>
