<?xml version="1.0" standalone="no"?>
<!DOCTYPE svg PUBLIC "-//W3C//DTD SVG 20010904//EN"
 "http://www.w3.org/TR/2001/REC-SVG-20010904/DTD/svg10.dtd">
<svg version="1.0" xmlns="http://www.w3.org/2000/svg"
 width="1400.000000pt" height="1400.000000pt" viewBox="0 0 1400.000000 1400.000000"
 preserveAspectRatio="xMidYMid meet">

<g transform="translate(0.000000,1400.000000) scale(0.100000,-0.100000)"
fill="#000000" stroke="none">
<path d="M4895 12511 c-185 -72 -385 -160 -365 -161 47 -2 1679 62 1700 67 14
3 -231 36 -545 74 -313 37 -586 70 -605 73 -27 3 -71 -9 -185 -53z"/>
<path d="M3835 11978 c-71 -46 -161 -106 -200 -133 -75 -52 -305 -225 -305
-229 0 -2 282 31 2220 261 410 48 732 89 715 90 -16 2 -496 21 -1065 43 -569
21 -1080 42 -1135 45 l-100 6 -130 -83z"/>
<path d="M4620 11449 c-789 -32 -1465 -58 -1501 -58 l-66 -1 -184 -182 c-154
-152 -433 -457 -426 -464 2 -2 3797 751 3827 760 41 11 -337 -1 -1650 -55z"/>
<path d="M4310 10824 c-1086 -129 -1982 -238 -1990 -243 -21 -12 -221 -294
-319 -450 -84 -135 -210 -354 -206 -359 2 -2 4534 1272 4560 1282 35 14 -274
-21 -2045 -230z"/>
<path d="M4091 10151 l-2344 -468 -25 -49 c-53 -104 -153 -328 -206 -461 -57
-144 -158 -434 -153 -439 2 -3 5052 1857 5092 1875 l20 10 -20 -1 c-11 0
-1075 -210 -2364 -467z"/>
<path d="M3973 9447 l-2621 -741 -26 -90 c-326 -1164 -295 -2385 88 -3512 63
-185 114 -316 197 -505 l60 -136 137 -7 c679 -34 1273 -296 1739 -767 474
-480 734 -1090 749 -1759 l3 -174 78 -40 c238 -120 600 -265 875 -350 1166
-361 2429 -351 3583 29 200 65 446 160 579 223 l80 38 493 2474 c271 1361 492
2479 490 2483 -1 4 -429 -1150 -951 -2565 -522 -1415 -952 -2577 -957 -2582
-6 -6 -9 -6 -9 2 0 6 335 1200 745 2653 410 1453 744 2643 743 2644 -2 2 -155
-326 -340 -729 -320 -694 -627 -1359 -1513 -3281 -486 -1055 -457 -992 -461
-980 -2 6 423 1169 946 2584 522 1416 948 2576 947 2578 -2 1 -605 -1072
-1341 -2385 -1477 -2638 -1353 -2418 -1360 -2412 -2 3 117 268 266 590 148
322 411 893 585 1270 607 1317 908 1970 1180 2559 150 326 272 595 271 596 -2
2 -691 -1027 -1532 -2286 -841 -1259 -1534 -2293 -1539 -2296 -15 -9 -50 -72
1377 2476 719 1283 1305 2335 1304 2337 -2 2 -768 -967 -1702 -2152 -935
-1185 -1703 -2157 -1708 -2160 -4 -3 -8 -3 -8 1 0 3 581 874 1290 1935 710
1061 1290 1931 1290 1934 0 3 -28 -6 -63 -18 -34 -13 -91 -30 -126 -37 l-63
-12 -1460 -1581 c-1464 -1585 -1579 -1708 -1560 -1671 6 11 443 567 970 1235
527 668 958 1216 957 1218 -2 2 -24 -11 -50 -27 -83 -52 -137 -66 -265 -66
-105 0 -121 3 -180 28 -36 16 -72 30 -81 30 -16 2 -979 -879 -979 -895 0 -4
15 -29 34 -55 49 -70 93 -161 118 -250 32 -110 32 -294 0 -407 -100 -350 -409
-586 -767 -586 -216 0 -387 68 -542 214 -179 169 -263 377 -250 623 8 171 68
326 179 463 l53 65 -65 -51 c-36 -28 -137 -108 -225 -177 -87 -69 -161 -124
-163 -122 -6 5 -78 -61 1688 1570 844 779 1540 1424 1546 1432 7 7 15 39 19
71 4 31 15 84 26 116 10 33 17 61 15 63 -1 2 -461 -304 -1022 -678 -2509
-1677 -2815 -1881 -2819 -1877 -3 3 971 774 2164 1714 1193 940 2167 1710
2166 1712 -2 2 -4633 -2588 -4782 -2675 -199 -116 263 197 2247 1522 1259 841
2288 1530 2286 1532 -1 2 -36 -12 -77 -31 -41 -19 -452 -208 -914 -421 -462
-213 -1191 -549 -1620 -747 -429 -198 -1141 -526 -1583 -730 -441 -204 -805
-368 -808 -365 -7 6 -147 -72 2471 1392 1276 714 2324 1302 2330 1306 5 5 -27
-4 -70 -20 -44 -16 -1209 -446 -2589 -955 -1380 -509 -2511 -924 -2514 -921
-3 3 -3 7 -1 9 2 2 144 68 314 146 171 78 596 274 945 435 915 422 1959 903
2695 1242 352 163 728 336 835 385 202 93 213 99 189 97 -8 -1 -1194 -334
-2636 -742z"/>
<path d="M6490 7239 c-320 -253 -306 -240 -249 -227 73 17 205 5 282 -26 37
-15 71 -26 75 -24 4 2 68 67 141 146 l133 142 -48 99 c-27 55 -53 100 -59 100
-5 0 -129 -95 -275 -210z"/>
<path d="M6990 6903 c-69 -63 -138 -127 -153 -142 l-28 -27 27 -80 c24 -71 26
-89 21 -179 -3 -56 -12 -120 -21 -145 -9 -25 -13 -40 -7 -35 7 8 264 334 463
588 l30 37 -39 16 c-21 9 -67 31 -103 49 l-66 33 -124 -115z"/>
<path d="M4981 6050 c-486 -384 -889 -704 -895 -710 -6 -7 9 -2 34 10 270 136
578 111 827 -66 36 -25 68 -42 72 -38 5 5 205 222 445 482 240 260 436 476
436 481 0 5 -11 32 -25 59 -41 82 -58 166 -52 262 4 75 13 111 52 203 4 9 3
17 -1 16 -5 0 -407 -315 -893 -699z"/>
<path d="M10237 4105 c-373 -1324 -676 -2409 -674 -2412 7 -6 202 93 359 183
98 56 459 285 486 309 5 4 512 4299 510 4313 -2 8 -308 -1069 -681 -2393z"/>
<path d="M10956 4382 c-225 -1131 -412 -2068 -414 -2081 -4 -20 12 -10 99 58
141 112 341 287 476 419 110 107 111 109 117 163 7 73 139 3476 134 3489 -1 5
-187 -916 -412 -2048z"/>
<path d="M12732 6365 c0 -147 24 -630 31 -615 3 8 17 72 30 142 l24 126 -43
214 c-42 210 -42 212 -42 133z"/>
<path d="M11822 6423 c-9 -60 -392 -3307 -390 -3309 10 -9 281 334 416 527
l82 116 -50 1274 c-53 1351 -55 1411 -58 1392z"/>
<path d="M12271 6375 c-1 -33 -19 -517 -41 -1075 -22 -558 -40 -1035 -39
-1060 0 -44 3 -40 89 133 48 97 111 232 139 299 l52 121 -96 811 c-53 446 -97
816 -100 821 -2 6 -4 -17 -4 -50z"/>
</g>
</svg>
